<svg data-name="Layer 1" xmlns="http://www.w3.org/2000/svg" viewBox="0 0 1080 1080">
  <path d="M546.12 219.89c16.78 1.72 32.22 15.61 33.31 35.17l8.96 161.01 111.3-118.4c14.08-14.97 36.43-13.43 51.26-1.45 15.97 12.9 21.13 35.51 8.35 52.59l-96.71 129.36 158.08-18.94c12.52-1.5 23.82 2.15 31.98 10.14 8.72 8.54 12.51 19.66 11.84 33.1-.73 14.74-10.69 29.93-26.54 33.66l-158.46 37.32 136.26 89.44c17.57 11.53 18.89 35.65 8.3 52.25-10.48 16.41-30.92 23.99-49.01 14.85L631 657.24l46.19 152.79c4.08 13.5 1.16 26.73-7.56 36.77-8.86 10.2-21.34 14.16-36.18 13.16-12.65-.85-24.41-8.7-29.84-21.36l-63.58-148.26-64.34 149.94c-5.39 12.56-18.19 19.14-30.13 19.74-14.17.71-25.52-3.06-34.12-12.22-9.14-9.73-12.86-23.38-8.72-37.05l46.49-153.55-143.9 72.67c-18.91 9.55-40.1 1.3-50.28-16.46-9.58-16.71-7.42-39.53 9.62-50.71l136.08-89.26L245.21 537c-16.46-3.86-27.54-16.11-29.76-31.63l.52-12.04c2.21-19.67 18.97-36.8 40.73-34.23l160.81 19-95.19-126.99c-13.5-18.01-10.6-41.13 7.11-55.18 14.8-11.75 37.21-12.95 51.22 1.93l110.98 117.88 9.12-161.15c1.08-19.15 16-31.59 33.02-34.33l12.37-.36Z" fill="#0060ff"/>
  <path d="m605.91 469.45-38.09 162.74-38.87-80.71-83.02-33.65z" fill="#fff"/>
</svg>
